<?xml version="1.0" encoding="UTF-8" standalone="no"?>
<svg
   version="1.1"
   width="2000"
   height="2000"
   style="clip-rule:evenodd;fill-rule:evenodd;image-rendering:optimizeQuality;shape-rendering:geometricPrecision;text-rendering:geometricPrecision"
   id="svg4"
   sodipodi:docname="favicon.svg"
   xmlns:inkscape="http://www.inkscape.org/namespaces/inkscape"
   xmlns:sodipodi="http://sodipodi.sourceforge.net/DTD/sodipodi-0.dtd"
   xmlns="http://www.w3.org/2000/svg"
   xmlns:svg="http://www.w3.org/2000/svg">
  <defs
     id="defs4" />
  <sodipodi:namedview
     id="namedview4"
     pagecolor="#ffffff"
     bordercolor="#000000"
     borderopacity="0.25"
     inkscape:showpageshadow="2"
     inkscape:pageopacity="0.0"
     inkscape:pagecheckerboard="0"
     inkscape:deskcolor="#d1d1d1" />
  <g
     id="g1"
     style="fill:#ffffff;fill-opacity:1"
     transform="translate(0.5,0.5)">
    <path
       style="opacity:1;fill:#ffffff;fill-opacity:1"
       fill="#000000"
       d="m -0.5,-0.5 c 666.667,0 1333.33,0 2000,0 0,666.667 0,1333.33 0,2000 -666.67,0 -1333.333,0 -2000,0 0,-666.67 0,-1333.333 0,-2000 z"
       id="path1" />
  </g>
  <g
     id="g2"
     style="fill:#000000;fill-opacity:1"
     transform="translate(0.5,0.5)">
    <path
       style="opacity:1;fill:#000000;fill-opacity:1"
       fill="#fefefe"
       d="m 428.5,367.5 c 49.667,0 99.333,0 149,0 0,78.667 0,157.333 0,236 68,0 136,0 204,0 0,-78.667 0,-157.333 0,-236 49.333,0 98.667,0 148,0 0,206.667 0,413.333 0,620 -49.333,0 -98.667,0 -148,0 0,-85 0,-170 0,-255 -68,0 -136,0 -204,0 0,85 0,170 0,255 -49.667,0 -99.333,0 -149,0 0,-206.667 0,-413.333 0,-620 z"
       id="path2" />
  </g>
  <g
     id="g3"
     style="fill:#000000;fill-opacity:1"
     transform="translate(0.5,0.5)">
    <path
       style="opacity:1;fill:#000000;fill-opacity:1"
       fill="#fefefe"
       d="m 1069.5,367.5 c 49.33,0 98.67,0 148,0 -0.17,119 0,238 0.5,357 0.33,28.97 4.66,57.304 13,85 14.81,41.499 44.31,61.833 88.5,61 46.39,1.91 77.56,-18.757 93.5,-62 8.52,-27.332 12.86,-55.332 13,-84 0.5,-119 0.67,-238 0.5,-357 47.67,0 95.33,0 143,0 0.17,122.667 0,245.334 -0.5,368 -11.12,203.763 -117.62,289.6 -319.5,257.5 -75.16,-16.165 -126.66,-59.998 -154.5,-131.5 -15.26,-42.966 -23.59,-87.299 -25,-133 -0.5,-120.333 -0.67,-240.666 -0.5,-361 z"
       id="path3" />
  </g>
  <g
     id="g4"
     style="fill:#000000;fill-opacity:1"
     transform="translate(0.5,0.5)">
    <path
       style="opacity:1;fill:#000000;fill-opacity:1"
       fill="#fefffe"
       d="m 430.5,1500.5 c 189.667,0 379.333,0 569,0 0,41.67 0,83.33 0,125 -189.667,0 -379.333,0 -569,0 0,-41.67 0,-83.33 0,-125 z"
       id="path4" />
  </g>
</svg>
