<?xml version="1.0" encoding="UTF-8"?>
<!DOCTYPE svg PUBLIC "-//W3C//DTD SVG 1.1//EN" "http://www.w3.org/Graphics/SVG/1.1/DTD/svg11.dtd">
<svg xmlns="http://www.w3.org/2000/svg" version="1.1" width="2000px" height="2000px" style="shape-rendering:geometricPrecision; text-rendering:geometricPrecision; image-rendering:optimizeQuality; fill-rule:evenodd; clip-rule:evenodd" xmlns:xlink="http://www.w3.org/1999/xlink">
<g><path style="opacity:1" fill="#000000" d="M -0.5,-0.5 C 666.167,-0.5 1332.83,-0.5 1999.5,-0.5C 1999.5,666.167 1999.5,1332.83 1999.5,1999.5C 1332.83,1999.5 666.167,1999.5 -0.5,1999.5C -0.5,1332.83 -0.5,666.167 -0.5,-0.5 Z"/></g>
<g><path style="opacity:1" fill="#fefefe" d="M 428.5,367.5 C 478.167,367.5 527.833,367.5 577.5,367.5C 577.5,446.167 577.5,524.833 577.5,603.5C 645.5,603.5 713.5,603.5 781.5,603.5C 781.5,524.833 781.5,446.167 781.5,367.5C 830.833,367.5 880.167,367.5 929.5,367.5C 929.5,574.167 929.5,780.833 929.5,987.5C 880.167,987.5 830.833,987.5 781.5,987.5C 781.5,902.5 781.5,817.5 781.5,732.5C 713.5,732.5 645.5,732.5 577.5,732.5C 577.5,817.5 577.5,902.5 577.5,987.5C 527.833,987.5 478.167,987.5 428.5,987.5C 428.5,780.833 428.5,574.167 428.5,367.5 Z"/></g>
<g><path style="opacity:1" fill="#fefefe" d="M 1069.5,367.5 C 1118.83,367.5 1168.17,367.5 1217.5,367.5C 1217.33,486.5 1217.5,605.5 1218,724.5C 1218.33,753.47 1222.66,781.804 1231,809.5C 1245.81,850.999 1275.31,871.333 1319.5,870.5C 1365.89,872.41 1397.06,851.743 1413,808.5C 1421.52,781.168 1425.86,753.168 1426,724.5C 1426.5,605.5 1426.67,486.5 1426.5,367.5C 1474.17,367.5 1521.83,367.5 1569.5,367.5C 1569.67,490.167 1569.5,612.834 1569,735.5C 1557.88,939.263 1451.38,1025.1 1249.5,993C 1174.34,976.835 1122.84,933.002 1095,861.5C 1079.74,818.534 1071.41,774.201 1070,728.5C 1069.5,608.167 1069.33,487.834 1069.5,367.5 Z"/></g>
<g><path style="opacity:1" fill="#fefffe" d="M 430.5,1500.5 C 620.167,1500.5 809.833,1500.5 999.5,1500.5C 999.5,1542.17 999.5,1583.83 999.5,1625.5C 809.833,1625.5 620.167,1625.5 430.5,1625.5C 430.5,1583.83 430.5,1542.17 430.5,1500.5 Z"/></g>
</svg>
